<?xml version="1.0" encoding="utf-8"?>
<!-- Generator: Adobe Illustrator 28.3.0, SVG Export Plug-In . SVG Version: 6.00 Build 0)  -->
<svg version="1.1" id="Layer_1" xmlns="http://www.w3.org/2000/svg" xmlns:xlink="http://www.w3.org/1999/xlink" x="0px" y="0px"
	 viewBox="0 0 530.8 191.8" style="enable-background:new 0 0 530.8 191.8;" xml:space="preserve">
<style type="text/css">
	.st0{fill:#9396CA;}
</style>
<g>
	<path class="st0" d="M9.5,74H3.3C1.5,74,0,72.3,0,70.5V58.3c0-2,1.5-3.5,3.3-3.5h6.2V34.5c0-1.8,1.6-3.5,3.5-3.5l15-0.2
		c1.8,0,3.3,1.6,3.3,3.5v20.5h16.1c2,0,3.5,1.5,3.5,3.5v12.2c0,1.8-1.5,3.5-3.5,3.5H31.2v29.2c0,5.1,2.7,5.8,5.7,5.8
		c3.1,0,6.9-1.3,8.9-2c2-0.7,3.5,0.2,4,2l3.7,11.5c0.7,1.8-0.2,3.7-2,4.4c-0.9,0.5-12.8,4.7-21.7,4.7c-14.1,0-20.3-8.8-20.3-23.6V74
		z"/>
	<path class="st0" d="M100.4,53c20.6,0,37.4,17.5,37.4,38.2c0,21-16.8,38.5-37.4,38.5c-20.6,0-37.4-17.5-37.4-38.5
		C63,70.5,79.8,53,100.4,53z M100.4,109.9c9.7,0,17.5-8.4,17.5-18.8c0-10.2-7.9-18.4-17.5-18.4c-9.9,0-17.5,8.2-17.5,18.4
		C82.9,101.5,90.6,109.9,100.4,109.9z"/>
	<path class="st0" d="M184.8,53c7.3,0,13,2,16.3,3.3V3.5c0-1.8,1.6-3.5,3.5-3.5h15.5c1.8,0,3.5,1.6,3.5,3.5v120.9
		c0,1.8-1.6,3.5-3.5,3.5h-7.1c-1.6,0-2.9-1.5-3.5-3.5l-1.8-5.7c0,0-8.6,11-23.9,11c-19.9,0-35.1-17.4-35.1-38.4
		C148.7,69.9,163.1,53,184.8,53z M186.5,109.9c9.7,0,14.1-7.5,15.3-11.9V76.9c0,0-5.1-4.2-14.2-4.2c-10.2,0-17.7,8.4-17.7,18.6
		S176.8,109.9,186.5,109.9z"/>
	<path class="st0" d="M277.2,53c20.6,0,37.4,17.5,37.4,38.2c0,21-16.8,38.5-37.4,38.5c-20.6,0-37.4-17.5-37.4-38.5
		C239.8,70.5,256.6,53,277.2,53z M277.2,109.9c9.7,0,17.5-8.4,17.5-18.8c0-10.2-7.9-18.4-17.5-18.4c-9.9,0-17.5,8.2-17.5,18.4
		C259.7,101.5,267.4,109.9,277.2,109.9z"/>
	<path class="st0" d="M326.9,119.1l4.9-9.9c0.7-1.8,2.6-2.2,4.2-1.3c0,0,8.2,4.4,16.6,4.4c3.7,0,6.2-1.5,6.2-4.6
		c0-3.3-2.6-5.3-12.2-9.1c-14.1-5.5-20.6-13-20.6-24.1S334.2,53,352.8,53c10.8,0,18.6,3.1,22.5,5.7c1.6,1.1,2.6,3.1,1.6,4.9
		l-4.6,9.3c-0.9,1.6-2.9,1.8-4.4,1.3c0,0-8.2-3.8-15.2-3.8c-4.4,0-6.2,1.8-6.2,4.2c0,3.3,3.3,4.4,10,7.1
		c14.1,5.5,24.7,11.5,24.7,25.8c0,12.1-10.6,22.3-29,22.3c-12.1,0-20.5-3.8-24.3-6.8C326.9,122,326.2,120.5,326.9,119.1z"/>
</g>
<g>
	<path d="M6.2,191.6v-41.9H9v10L8.6,165l0.6,5.3v21.3H6.2z M21.6,180.4c-2.7,0-5.1-0.6-7.3-1.9c-2.2-1.2-3.9-3-5.2-5.4
		c-1.3-2.3-1.9-5.1-1.9-8.3c0-3.2,0.6-6,1.9-8.3c1.3-2.3,3-4.1,5.2-5.4c2.2-1.2,4.6-1.9,7.3-1.9c2.9,0,5.5,0.7,7.8,2
		c2.3,1.3,4.1,3.1,5.4,5.5c1.3,2.3,2,5,2,8.1c0,3-0.7,5.7-2,8.1c-1.3,2.3-3.1,4.2-5.4,5.5C27,179.8,24.4,180.4,21.6,180.4z
		 M21.4,177.8c2.3,0,4.5-0.5,6.3-1.6c1.9-1.1,3.3-2.6,4.4-4.5c1.1-2,1.6-4.2,1.6-6.7c0-2.6-0.5-4.8-1.6-6.8
		c-1.1-1.9-2.5-3.4-4.4-4.5c-1.9-1.1-4-1.6-6.3-1.6c-2.3,0-4.4,0.5-6.3,1.6c-1.9,1.1-3.3,2.6-4.4,4.5c-1.1,1.9-1.6,4.2-1.6,6.8
		c0,2.5,0.5,4.8,1.6,6.7c1.1,2,2.5,3.5,4.4,4.5C16.9,177.3,19,177.8,21.4,177.8z"/>
	<path d="M45.7,180.2v-30.6h2.8v8.4l-0.3-0.9c0.9-2.5,2.3-4.4,4.3-5.7c2-1.3,4.6-2,7.6-2v2.9c-0.1,0-0.2,0-0.4,0c-0.1,0-0.2,0-0.4,0
		c-3.4,0-6.1,1.1-8,3.2c-1.9,2.1-2.9,5.1-2.9,8.9v15.9H45.7z"/>
	<path d="M80.8,180.4c-2.9,0-5.5-0.7-7.8-2c-2.3-1.3-4.1-3.2-5.4-5.5c-1.3-2.3-2-5-2-8c0-3,0.7-5.7,2-8.1c1.3-2.3,3.2-4.1,5.4-5.5
		c2.3-1.3,4.9-2,7.8-2c2.9,0,5.5,0.7,7.8,2c2.3,1.3,4.1,3.2,5.4,5.5c1.3,2.3,2,5,2,8.1c0,3-0.7,5.7-2,8c-1.3,2.3-3.1,4.2-5.4,5.5
		C86.3,179.8,83.7,180.4,80.8,180.4z M80.8,177.8c2.3,0,4.5-0.5,6.3-1.6c1.9-1.1,3.3-2.6,4.4-4.5c1.1-2,1.6-4.2,1.6-6.7
		c0-2.6-0.5-4.8-1.6-6.8c-1.1-1.9-2.5-3.4-4.4-4.5c-1.9-1.1-4-1.6-6.3-1.6s-4.4,0.5-6.3,1.6c-1.9,1.1-3.3,2.6-4.4,4.5
		c-1.1,1.9-1.6,4.2-1.6,6.8c0,2.5,0.5,4.8,1.6,6.7c1.1,2,2.5,3.5,4.4,4.5C76.3,177.3,78.4,177.8,80.8,177.8z"/>
	<path d="M116.9,180.4c-2.9,0-5.4-0.7-7.7-2c-2.3-1.3-4.1-3.1-5.4-5.5c-1.3-2.3-2-5-2-8.1c0-3.1,0.7-5.8,2-8.1
		c1.3-2.3,3.1-4.1,5.4-5.4c2.3-1.3,4.9-2,7.7-2c2.7,0,5.1,0.6,7.3,1.9c2.2,1.3,3.9,3,5.2,5.3c1.3,2.3,1.9,5.1,1.9,8.3
		c0,3.2-0.6,5.9-1.9,8.3c-1.3,2.3-3,4.1-5.1,5.4C122.1,179.8,119.7,180.4,116.9,180.4z M117.1,177.8c2.3,0,4.4-0.5,6.3-1.6
		c1.9-1.1,3.3-2.6,4.4-4.5c1.1-2,1.6-4.2,1.6-6.7c0-2.6-0.5-4.8-1.6-6.8c-1.1-1.9-2.5-3.4-4.4-4.5c-1.9-1.1-4-1.6-6.3-1.6
		s-4.4,0.5-6.3,1.6c-1.9,1.1-3.3,2.6-4.4,4.5c-1.1,1.9-1.6,4.2-1.6,6.8c0,2.5,0.5,4.8,1.6,6.7c1.1,2,2.5,3.5,4.4,4.5
		C112.7,177.3,114.8,177.8,117.1,177.8z M129.5,180.2v-10l0.5-5.3l-0.6-5.3v-22.8h2.9v43.5H129.5z"/>
	<path d="M157.1,180.4c-2.6,0-4.9-0.5-6.8-1.4c-1.9-1-3.4-2.4-4.4-4.3c-1-1.9-1.6-4.3-1.6-7.2v-17.9h2.9v17.6c0,3.4,0.9,6.1,2.6,7.9
		c1.8,1.8,4.2,2.7,7.4,2.7c2.3,0,4.3-0.5,6-1.5c1.7-1,3-2.4,3.9-4.1c0.9-1.8,1.3-3.9,1.3-6.3v-16.3h2.9v30.6h-2.8v-8.5l0.4,1
		c-0.9,2.4-2.4,4.3-4.5,5.7C162.5,179.7,160,180.4,157.1,180.4z"/>
	<path d="M196,180.4c-3,0-5.6-0.7-7.9-2c-2.3-1.3-4.2-3.2-5.5-5.5c-1.3-2.3-2-5-2-8c0-3,0.7-5.7,2-8.1c1.3-2.3,3.2-4.2,5.5-5.5
		c2.3-1.3,5-2,7.9-2c2.5,0,4.7,0.5,6.7,1.4c2,0.9,3.6,2.3,4.9,4.2l-2.2,1.6c-1.1-1.6-2.5-2.7-4.1-3.5c-1.6-0.7-3.4-1.1-5.3-1.1
		c-2.4,0-4.5,0.5-6.4,1.6c-1.9,1.1-3.4,2.6-4.5,4.5c-1.1,1.9-1.6,4.2-1.6,6.8c0,2.6,0.5,4.8,1.6,6.8c1.1,1.9,2.6,3.4,4.5,4.5
		c1.9,1.1,4,1.6,6.4,1.6c1.9,0,3.7-0.4,5.3-1.1c1.6-0.7,3-1.9,4.1-3.5l2.2,1.6c-1.2,1.9-2.9,3.3-4.9,4.2
		C200.7,180,198.5,180.4,196,180.4z"/>
	<path d="M211.4,152.1v-2.5h18.3v2.5H211.4z M225.3,180.4c-2.7,0-4.8-0.7-6.2-2.2c-1.4-1.5-2.1-3.5-2.1-6.1v-29.2h2.9v28.9
		c0,2,0.5,3.5,1.5,4.5c1,1.1,2.4,1.6,4.2,1.6c1.9,0,3.5-0.6,4.7-1.7l1.2,2.1c-0.8,0.7-1.7,1.3-2.8,1.6
		C227.6,180.3,226.5,180.4,225.3,180.4z"/>
	<path d="M241.2,142.2c-0.7,0-1.2-0.2-1.7-0.7s-0.7-1-0.7-1.6c0-0.7,0.2-1.2,0.7-1.7c0.5-0.5,1-0.7,1.7-0.7c0.7,0,1.3,0.2,1.7,0.7
		c0.4,0.4,0.7,1,0.7,1.7c0,0.7-0.2,1.2-0.7,1.7C242.4,142,241.9,142.2,241.2,142.2z M239.7,180.2v-30.6h2.9v30.6H239.7z"/>
	<path d="M262.7,180.2L249,149.6h3.1l12.9,28.9h-1.4l13-28.9h3l-13.8,30.6H262.7z"/>
	<path d="M287.4,142.2c-0.7,0-1.2-0.2-1.7-0.7s-0.7-1-0.7-1.6c0-0.7,0.2-1.2,0.7-1.7c0.5-0.5,1-0.7,1.7-0.7c0.7,0,1.3,0.2,1.7,0.7
		c0.4,0.4,0.7,1,0.7,1.7c0,0.7-0.2,1.2-0.7,1.7C288.7,142,288.1,142.2,287.4,142.2z M285.9,180.2v-30.6h2.9v30.6H285.9z"/>
	<path d="M296.2,152.1v-2.5h18.3v2.5H296.2z M310.1,180.4c-2.7,0-4.8-0.7-6.2-2.2c-1.4-1.5-2.1-3.5-2.1-6.1v-29.2h2.9v28.9
		c0,2,0.5,3.5,1.5,4.5c1,1.1,2.4,1.6,4.2,1.6c1.9,0,3.5-0.6,4.7-1.7l1.2,2.1c-0.8,0.7-1.7,1.3-2.8,1.6
		C312.4,180.3,311.3,180.4,310.1,180.4z"/>
	<path d="M323.8,191.8c-1.4,0-2.7-0.2-4-0.7c-1.2-0.5-2.3-1.2-3.1-2.1l1.5-2.2c0.8,0.8,1.6,1.4,2.5,1.8c0.9,0.4,2,0.6,3.1,0.6
		c1.4,0,2.6-0.4,3.7-1.2c1.1-0.8,2.1-2.2,3-4.3l2.1-4.7l0.4-0.5l12.9-28.9h3l-15.7,34.7c-0.8,1.9-1.7,3.3-2.7,4.4
		c-1,1.1-2,1.8-3.1,2.3C326.4,191.6,325.2,191.8,323.8,191.8z M332.7,181l-14.2-31.3h3.1l12.9,28.8L332.7,181z"/>
	<path d="M370.5,180.2v-43.5h2.9v22.8l-0.6,5.3l0.5,5.3v10H370.5z M385.9,180.4c-2.7,0-5.1-0.6-7.3-1.9c-2.2-1.2-3.9-3-5.2-5.4
		c-1.3-2.3-1.9-5.1-1.9-8.3c0-3.2,0.6-6,1.9-8.3c1.3-2.3,3-4.1,5.2-5.3c2.2-1.2,4.6-1.9,7.3-1.9c2.9,0,5.5,0.7,7.8,2
		c2.3,1.3,4.1,3.1,5.4,5.4c1.3,2.3,2,5,2,8.1c0,3-0.7,5.7-2,8.1c-1.3,2.3-3.1,4.2-5.4,5.5C391.3,179.8,388.7,180.4,385.9,180.4z
		 M385.7,177.8c2.3,0,4.5-0.5,6.3-1.6c1.9-1.1,3.3-2.6,4.4-4.5c1.1-2,1.6-4.2,1.6-6.7c0-2.6-0.5-4.8-1.6-6.8
		c-1.1-1.9-2.5-3.4-4.4-4.5c-1.9-1.1-4-1.6-6.3-1.6c-2.3,0-4.4,0.5-6.3,1.6c-1.9,1.1-3.3,2.6-4.4,4.5c-1.1,1.9-1.6,4.2-1.6,6.8
		c0,2.5,0.5,4.8,1.6,6.7c1.1,2,2.5,3.5,4.4,4.5C381.2,177.3,383.3,177.8,385.7,177.8z"/>
	<path d="M422,180.4c-2.9,0-5.5-0.7-7.8-2c-2.3-1.3-4.1-3.2-5.4-5.5c-1.3-2.3-2-5-2-8c0-3,0.7-5.7,2-8.1c1.3-2.3,3.2-4.1,5.4-5.5
		c2.3-1.3,4.9-2,7.8-2c2.9,0,5.5,0.7,7.8,2c2.3,1.3,4.1,3.2,5.4,5.5c1.3,2.3,2,5,2,8.1c0,3-0.7,5.7-2,8c-1.3,2.3-3.1,4.2-5.4,5.5
		C427.5,179.8,424.9,180.4,422,180.4z M422,177.8c2.3,0,4.5-0.5,6.3-1.6c1.9-1.1,3.3-2.6,4.4-4.5c1.1-2,1.6-4.2,1.6-6.7
		c0-2.6-0.5-4.8-1.6-6.8c-1.1-1.9-2.5-3.4-4.4-4.5c-1.9-1.1-4-1.6-6.3-1.6s-4.4,0.5-6.3,1.6c-1.9,1.1-3.3,2.6-4.4,4.5
		c-1.1,1.9-1.6,4.2-1.6,6.8c0,2.5,0.5,4.8,1.6,6.7c1.1,2,2.5,3.5,4.4,4.5C417.6,177.3,419.7,177.8,422,177.8z"/>
	<path d="M454.6,180.4c-2.3,0-4.2-0.4-5.9-1.1c-1.7-0.7-2.9-1.7-3.8-3.1c-0.9-1.3-1.3-2.9-1.3-4.6c0-1.6,0.4-3,1.1-4.2
		c0.7-1.3,1.9-2.3,3.6-3.1c1.7-0.8,3.9-1.2,6.7-1.2h11.2v2.3h-11.2c-3.2,0-5.4,0.6-6.6,1.8c-1.3,1.2-1.9,2.6-1.9,4.4
		c0,2,0.7,3.5,2.2,4.7c1.5,1.2,3.6,1.8,6.3,1.8c2.6,0,4.8-0.6,6.5-1.8c1.8-1.2,3.1-2.9,4-5.1l0.8,2c-0.8,2.2-2.2,4-4.2,5.3
		C460.2,179.8,457.7,180.4,454.6,180.4z M465.6,180.2v-7l-0.1-1.1v-11.5c0-2.9-0.8-5-2.3-6.5c-1.5-1.5-3.8-2.2-6.8-2.2
		c-2.1,0-4.1,0.4-5.9,1.1c-1.8,0.7-3.4,1.7-4.7,2.8l-1.5-2.1c1.5-1.4,3.4-2.4,5.5-3.2c2.1-0.8,4.4-1.1,6.7-1.1c3.8,0,6.7,1,8.7,2.9
		c2,1.9,3,4.8,3,8.6v19.4H465.6z"/>
	<path d="M480.5,180.2v-30.6h2.8v8.4l-0.3-0.9c0.9-2.5,2.3-4.4,4.3-5.7c2-1.3,4.6-2,7.6-2v2.9c-0.1,0-0.2,0-0.4,0
		c-0.1,0-0.2,0-0.4,0c-3.4,0-6.1,1.1-8,3.2c-1.9,2.1-2.9,5.1-2.9,8.9v15.9H480.5z"/>
	<path d="M515.4,180.4c-2.9,0-5.4-0.7-7.7-2c-2.3-1.3-4.1-3.1-5.4-5.5c-1.3-2.3-2-5-2-8.1c0-3.1,0.7-5.8,2-8.1
		c1.3-2.3,3.1-4.1,5.4-5.4c2.3-1.3,4.9-2,7.7-2c2.7,0,5.1,0.6,7.3,1.9c2.2,1.3,3.9,3,5.2,5.3c1.3,2.3,1.9,5.1,1.9,8.3
		c0,3.2-0.6,5.9-1.9,8.3c-1.3,2.3-3,4.1-5.1,5.4C520.6,179.8,518.1,180.4,515.4,180.4z M515.6,177.8c2.3,0,4.4-0.5,6.3-1.6
		c1.9-1.1,3.3-2.6,4.4-4.5c1.1-2,1.6-4.2,1.6-6.7c0-2.6-0.5-4.8-1.6-6.8c-1.1-1.9-2.5-3.4-4.4-4.5c-1.9-1.1-4-1.6-6.3-1.6
		c-2.3,0-4.4,0.5-6.3,1.6c-1.9,1.1-3.3,2.6-4.4,4.5s-1.6,4.2-1.6,6.8c0,2.5,0.5,4.8,1.6,6.7c1.1,2,2.5,3.5,4.4,4.5
		C511.1,177.3,513.2,177.8,515.6,177.8z M527.9,180.2v-10l0.5-5.3l-0.6-5.3v-22.8h2.9v43.5H527.9z"/>
</g>
</svg>
